<svg width="20" height="19" viewBox="0 0 20 19" fill="none" xmlns="http://www.w3.org/2000/svg">
<path d="M10.0002 -0.000236511C4.47524 -0.000236511 0.000244141 4.36144 0.000244141 9.74084C0.000244141 14.0455 2.86524 17.6959 6.83774 18.983C7.33774 19.0747 7.52108 18.7731 7.52108 18.5146C7.52108 18.2833 7.51274 17.6703 7.50858 16.8583C4.72691 17.4456 4.14024 15.5514 4.14024 15.5514C3.68524 14.4272 3.02774 14.1265 3.02774 14.1265C2.12191 13.5226 3.09774 13.535 3.09774 13.535C4.10191 13.6027 4.62941 14.5387 4.62941 14.5387C5.52108 16.0281 6.97024 15.5977 7.54191 15.3491C7.63191 14.7188 7.88941 14.29 8.17524 14.0463C5.95441 13.8026 3.62024 12.965 3.62024 9.2328C3.62024 8.16964 4.00774 7.30061 4.64941 6.6191C4.53691 6.37293 4.19941 5.38247 4.73691 4.04092C4.73691 4.04092 5.57441 3.77988 7.48691 5.03964C8.28691 4.82321 9.13691 4.71582 9.98691 4.71087C10.8369 4.71582 11.6869 4.82321 12.4869 5.03964C14.3869 3.77988 15.2244 4.04092 15.2244 4.04092C15.7619 5.38247 15.4244 6.37293 15.3244 6.6191C15.9619 7.30061 16.3494 8.16964 16.3494 9.2328C16.3494 12.9749 14.0119 13.7985 11.7869 14.0381C12.1369 14.3305 12.4619 14.9278 12.4619 15.8406C12.4619 17.1441 12.4494 18.1916 12.4494 18.508C12.4494 18.7632 12.6244 19.068 13.1369 18.9706C17.1377 17.6918 20.0002 14.0389 20.0002 9.74084C20.0002 4.36144 15.5227 -0.000236511 10.0002 -0.000236511Z" fill="#212121"/>
</svg>
